<mxfile host="app.diagrams.net" modified="2022-03-16T13:45:38.931Z" agent="5.0 (Windows NT 10.0; Win64; x64) AppleWebKit/537.36 (KHTML, like Gecko) Chrome/99.0.4844.74 Safari/537.36" etag="uGEuNm5GVRc4L-GwME9u" version="17.1.3" type="github">
  <diagram id="koIXB-piqZe5bMiR-bZl" name="Page-1">
    <mxGraphModel dx="901" dy="567" grid="1" gridSize="10" guides="1" tooltips="1" connect="1" arrows="1" fold="1" page="1" pageScale="1" pageWidth="827" pageHeight="1169" math="0" shadow="0">
      <root>
        <mxCell id="rqwTE8DcEwKPQkKoBpFf-0" />
        <mxCell id="rqwTE8DcEwKPQkKoBpFf-1" parent="rqwTE8DcEwKPQkKoBpFf-0" />
        <mxCell id="OUc3P_ukeDaZ9KivfWFZ-6" style="edgeStyle=orthogonalEdgeStyle;rounded=0;orthogonalLoop=1;jettySize=auto;html=1;exitX=1;exitY=1;exitDx=0;exitDy=0;" edge="1" parent="rqwTE8DcEwKPQkKoBpFf-1" source="ymK1uzOVTLXMN06-zwSK-2">
          <mxGeometry relative="1" as="geometry">
            <mxPoint x="300" y="450" as="targetPoint" />
          </mxGeometry>
        </mxCell>
        <mxCell id="OUc3P_ukeDaZ9KivfWFZ-7" style="edgeStyle=orthogonalEdgeStyle;rounded=0;orthogonalLoop=1;jettySize=auto;html=1;exitX=0;exitY=1;exitDx=0;exitDy=0;" edge="1" parent="rqwTE8DcEwKPQkKoBpFf-1" source="ymK1uzOVTLXMN06-zwSK-2">
          <mxGeometry relative="1" as="geometry">
            <mxPoint x="150" y="440" as="targetPoint" />
          </mxGeometry>
        </mxCell>
        <mxCell id="OUc3P_ukeDaZ9KivfWFZ-8" style="edgeStyle=orthogonalEdgeStyle;rounded=0;orthogonalLoop=1;jettySize=auto;html=1;exitX=0;exitY=0;exitDx=0;exitDy=0;" edge="1" parent="rqwTE8DcEwKPQkKoBpFf-1" source="ymK1uzOVTLXMN06-zwSK-2">
          <mxGeometry relative="1" as="geometry">
            <mxPoint x="120" y="359.66666666666674" as="targetPoint" />
          </mxGeometry>
        </mxCell>
        <mxCell id="ymK1uzOVTLXMN06-zwSK-2" value="DECISÃO" style="rhombus;whiteSpace=wrap;html=1;" parent="rqwTE8DcEwKPQkKoBpFf-1" vertex="1">
          <mxGeometry x="180" y="340" width="80" height="80" as="geometry" />
        </mxCell>
        <mxCell id="ymK1uzOVTLXMN06-zwSK-13" value="" style="edgeStyle=orthogonalEdgeStyle;rounded=0;orthogonalLoop=1;jettySize=auto;html=1;fontColor=none;" parent="rqwTE8DcEwKPQkKoBpFf-1" source="ymK1uzOVTLXMN06-zwSK-3" target="ymK1uzOVTLXMN06-zwSK-7" edge="1">
          <mxGeometry relative="1" as="geometry" />
        </mxCell>
        <mxCell id="ymK1uzOVTLXMN06-zwSK-3" value="COMEÇO" style="rounded=1;whiteSpace=wrap;html=1;" parent="rqwTE8DcEwKPQkKoBpFf-1" vertex="1">
          <mxGeometry x="80" y="20" width="120" height="60" as="geometry" />
        </mxCell>
        <mxCell id="OUc3P_ukeDaZ9KivfWFZ-4" style="edgeStyle=orthogonalEdgeStyle;rounded=0;orthogonalLoop=1;jettySize=auto;html=1;" edge="1" parent="rqwTE8DcEwKPQkKoBpFf-1" source="ymK1uzOVTLXMN06-zwSK-7">
          <mxGeometry relative="1" as="geometry">
            <mxPoint x="220" y="210" as="targetPoint" />
          </mxGeometry>
        </mxCell>
        <mxCell id="ymK1uzOVTLXMN06-zwSK-7" value="Enter Numero X" style="shape=parallelogram;perimeter=parallelogramPerimeter;whiteSpace=wrap;html=1;fixedSize=1;" parent="rqwTE8DcEwKPQkKoBpFf-1" vertex="1">
          <mxGeometry x="80" y="120" width="120" height="60" as="geometry" />
        </mxCell>
        <mxCell id="OUc3P_ukeDaZ9KivfWFZ-5" style="edgeStyle=orthogonalEdgeStyle;rounded=0;orthogonalLoop=1;jettySize=auto;html=1;" edge="1" parent="rqwTE8DcEwKPQkKoBpFf-1" source="OUc3P_ukeDaZ9KivfWFZ-0">
          <mxGeometry relative="1" as="geometry">
            <mxPoint x="220" y="330" as="targetPoint" />
          </mxGeometry>
        </mxCell>
        <mxCell id="OUc3P_ukeDaZ9KivfWFZ-0" value="Enter Numero Y" style="shape=parallelogram;perimeter=parallelogramPerimeter;whiteSpace=wrap;html=1;fixedSize=1;" vertex="1" parent="rqwTE8DcEwKPQkKoBpFf-1">
          <mxGeometry x="160" y="210" width="120" height="60" as="geometry" />
        </mxCell>
        <mxCell id="OUc3P_ukeDaZ9KivfWFZ-12" style="edgeStyle=orthogonalEdgeStyle;rounded=0;orthogonalLoop=1;jettySize=auto;html=1;entryX=0.25;entryY=0;entryDx=0;entryDy=0;" edge="1" parent="rqwTE8DcEwKPQkKoBpFf-1" source="OUc3P_ukeDaZ9KivfWFZ-3" target="OUc3P_ukeDaZ9KivfWFZ-13">
          <mxGeometry relative="1" as="geometry">
            <mxPoint x="170" y="609.9999999999999" as="targetPoint" />
          </mxGeometry>
        </mxCell>
        <mxCell id="OUc3P_ukeDaZ9KivfWFZ-3" value="Se X for maior que Y resultado = X" style="rounded=0;whiteSpace=wrap;html=1;" vertex="1" parent="rqwTE8DcEwKPQkKoBpFf-1">
          <mxGeometry x="90" y="440" width="120" height="60" as="geometry" />
        </mxCell>
        <mxCell id="OUc3P_ukeDaZ9KivfWFZ-14" style="edgeStyle=orthogonalEdgeStyle;rounded=0;orthogonalLoop=1;jettySize=auto;html=1;entryX=0;entryY=0.5;entryDx=0;entryDy=0;" edge="1" parent="rqwTE8DcEwKPQkKoBpFf-1" source="OUc3P_ukeDaZ9KivfWFZ-9" target="OUc3P_ukeDaZ9KivfWFZ-13">
          <mxGeometry relative="1" as="geometry">
            <Array as="points">
              <mxPoint x="70" y="620" />
            </Array>
          </mxGeometry>
        </mxCell>
        <mxCell id="OUc3P_ukeDaZ9KivfWFZ-9" value="Se X = Y resultado = X" style="rounded=0;whiteSpace=wrap;html=1;" vertex="1" parent="rqwTE8DcEwKPQkKoBpFf-1">
          <mxGeometry x="10" y="330" width="110" height="50" as="geometry" />
        </mxCell>
        <mxCell id="OUc3P_ukeDaZ9KivfWFZ-11" style="edgeStyle=orthogonalEdgeStyle;rounded=0;orthogonalLoop=1;jettySize=auto;html=1;entryX=0.917;entryY=0;entryDx=0;entryDy=0;entryPerimeter=0;" edge="1" parent="rqwTE8DcEwKPQkKoBpFf-1" source="OUc3P_ukeDaZ9KivfWFZ-10" target="OUc3P_ukeDaZ9KivfWFZ-13">
          <mxGeometry relative="1" as="geometry">
            <mxPoint x="230" y="609.9999999999999" as="targetPoint" />
          </mxGeometry>
        </mxCell>
        <mxCell id="OUc3P_ukeDaZ9KivfWFZ-10" value="Se Y for maior que X resultado = Y" style="rounded=0;whiteSpace=wrap;html=1;" vertex="1" parent="rqwTE8DcEwKPQkKoBpFf-1">
          <mxGeometry x="240" y="450" width="120" height="60" as="geometry" />
        </mxCell>
        <mxCell id="OUc3P_ukeDaZ9KivfWFZ-13" value="Resultado =" style="shape=document;whiteSpace=wrap;html=1;boundedLbl=1;" vertex="1" parent="rqwTE8DcEwKPQkKoBpFf-1">
          <mxGeometry x="140" y="579.9999999999999" width="120" height="80" as="geometry" />
        </mxCell>
      </root>
    </mxGraphModel>
  </diagram>
</mxfile>
